<svg xmlns="http://www.w3.org/2000/svg"
shape-rendering="geometricPrecision"
width="4000" height="4000" viewBox="0 0 535 535"><rect width="100%" height="100%" fill="#FFFFFF" />
  <metadata>null</metadata>

<path d="
M 24.203 419.71
C 25.388 419.646 26.557 419.635 27.74 419.596
C 28.847 420.485 29.344 422.724 29.947 424.004
C 31.102 426.452 32.487 428.795 33.647 431.242
C 34.321 432.665 34.902 434.523 36.021 435.649
C 36.746 433.26 38.177 431.033 39.273 428.8
C 40.757 425.779 42.166 422.594 43.916 419.722
C 45.098 419.631 46.251 419.698 47.429 419.808
C 47.151 423.067 47.584 426.479 47.576 429.758
C 47.565 434.192 47.168 438.909 47.676 443.311
C 46.648 443.214 45.515 443.306 44.485 443.369
C 44.055 441.957 44.424 439.987 44.43 438.5
C 44.441 435.506 44.302 432.512 44.341 429.519
C 44.36 428.023 44.723 426.521 44.487 425.033
C 42.232 428.067 40.791 432.08 39.103 435.467
C 38.192 437.293 37.18 439.565 35.487 440.802
C 34.434 440.498 33.48 437.718 33 436.733
C 31.156 432.948 29.807 428.284 27.299 424.922
C 27.056 428.741 27.214 432.654 27.201 436.49
C 27.195 438.627 26.868 441.218 27.315 443.298
C 26.247 443.228 25.106 443.504 24.098 443.074
C 23.889 435.302 24.56 427.487 24.203 419.71 Z"
opacity="1" fill="rgb(16,135,213)" fill-rule="evenodd" />
<path d="
M 26.816 389.241
C 30.569 381.381 33.681 373.12 36.957 365.053
C 41.556 353.729 46.534 342.547 51.346 331.311
C 54.047 325.004 56.534 318.531 59.498 312.35
C 62.276 312.014 65.251 312.296 68.05 312.31
C 69.276 312.316 70.792 312.013 71.962 312.345
C 72.484 314.443 73.853 316.649 74.755 318.648
C 76.49 322.495 78.11 326.388 79.797 330.257
C 85.387 343.07 90.847 355.982 96.121 368.921
C 98.169 373.944 100.215 378.987 102.369 383.967
C 103.097 385.653 104.277 387.492 104.762 389.237
C 101.538 388.975 98.234 389.183 94.999 389.17
C 94.101 389.167 92.125 389.553 91.401 389.096
C 91.008 387.302 90.025 385.524 89.309 383.834
C 87.834 380.356 86.401 376.837 85.061 373.309
C 76.23 373.578 67.336 373.199 58.499 373.199
C 54.495 373.199 49.999 372.715 46.06 373.461
C 44.444 377.288 43.075 381.219 41.454 385.047
C 40.906 386.341 40.686 388.029 39.834 389.159
C 37.252 389.32 34.593 389.082 32.001 389.1
C 30.307 389.111 28.491 389.4 26.816 389.241 Z
M 50.699 362.275
C 51.037 362.795 52.111 362.435 52.658 362.391
C 54.4 362.251 56.2 362.496 57.944 362.536
C 65.493 362.709 73.239 361.959 80.757 362.687
C 78.707 359.036 77.556 354.778 75.951 350.91
C 72.51 342.62 69.128 334.309 65.818 325.968
C 63.583 332.343 60.343 338.43 57.85 344.723
C 55.57 350.48 53.643 356.847 50.699 362.275 Z"
opacity="1" fill="rgb(13,17,47)" fill-rule="evenodd" />
<path d="
M 51.954 429.09
C 52.327 427.376 53.158 425.565 54.221 424.169
C 61.584 414.492 77.669 421.994 75.328 433.872
C 74.952 435.779 74.218 437.575 73.061 439.147
C 65.546 449.354 49.362 441.005 51.954 429.09 Z
M 54.909 430.093
C 54.335 433.769 55.917 437.781 59.184 439.725
C 64.12 442.661 70.932 439.958 71.99 434.193
C 72.605 430.843 71.777 426.996 69.095 424.714
C 63.784 420.196 55.978 423.254 54.909 430.093 Z"
opacity="1" fill="rgb(16,138,211)" fill-rule="evenodd" />
<path d="
M 76.072 419.79
C 77.287 419.728 78.468 419.635 79.686 419.647
C 81.233 424.754 83.344 429.868 85.354 434.812
C 86.008 436.42 86.316 438.954 87.544 440.179
C 88.961 433.299 92.824 426.68 95.113 420.033
C 96.027 419.41 97.623 419.722 98.7 419.87
C 98.731 420.421 98.214 421.225 98.015 421.745
C 97.435 423.266 96.848 424.796 96.224 426.299
C 94.568 430.29 92.843 434.253 91.131 438.22
C 90.375 439.97 89.824 442.045 88.745 443.614
C 87.77 443.731 86.79 443.696 85.859 443.369
C 84.335 441.52 83.73 438.401 82.812 436.194
C 80.543 430.739 78.569 425.142 76.072 419.79 Z"
opacity="1" fill="rgb(14,134,210)" fill-rule="evenodd" />
<path d="
M 101.894 419.951
C 105.262 419.89 108.635 419.906 112.007 419.855
C 113.794 419.828 115.893 419.516 117.643 419.866
C 117.69 420.777 117.577 421.666 117.55 422.576
C 116.231 423.013 114.392 422.73 113.01 422.733
C 110.273 422.739 107.533 422.85 104.8 422.847
C 104.442 425.216 104.865 427.768 104.788 430.168
C 105.583 430.464 106.782 430.199 107.631 430.191
C 110.284 430.166 113.477 429.74 116.064 430.321
C 116.246 431.15 116.261 431.968 116.236 432.813
C 113.852 433.4 110.822 432.881 108.367 432.899
C 107.316 432.906 105.697 432.817 104.831 433.363
C 104.79 435.789 104.843 438.285 104.672 440.705
C 108.007 440.856 111.362 440.667 114.701 440.716
C 115.326 440.725 117.435 440.473 117.747 441.041
C 117.769 441.903 117.658 442.836 117.754 443.685
C 112.495 443.804 107.01 443.571 101.731 443.532
C 101.565 438.188 101.708 432.844 101.72 427.498
C 101.725 425.198 101.212 422.139 101.894 419.951 Z"
opacity="0.996" fill="rgb(16,136,215)" fill-rule="evenodd" />
<path d="
M 118.446 312.286
C 126.621 312.091 134.827 312.274 143.007 312.272
C 152.032 312.27 160.654 311.919 168.512 317.117
C 179.294 324.252 181.115 340.312 174.334 350.728
C 171.215 355.519 166.041 358.783 160.651 360.471
C 161.365 362.634 163.682 364.94 165.005 366.817
C 168.711 372.074 172.35 377.395 175.941 382.732
C 177.249 384.678 179.694 387.138 180.436 389.334
C 175.946 388.802 170.809 390.24 166.435 389.214
C 162.126 382.609 157.542 376.094 152.935 369.694
C 151.587 367.821 150.234 365.938 148.948 364.021
C 148.469 363.307 148.03 362.293 147.323 361.789
C 143.484 361.703 139.621 361.88 135.78 361.879
C 134.178 361.878 131.914 361.441 130.525 362.308
C 130.152 367.338 130.413 372.465 130.381 377.508
C 130.357 381.367 129.958 385.456 130.278 389.288
C 126.405 389.098 122.44 389.096 118.566 389.257
C 117.512 363.636 119.018 337.918 118.446 312.286 Z
M 130.375 323.786
C 130.217 332.799 129.934 341.963 130.373 350.968
C 136.443 350.443 142.674 351.137 148.764 351.08
C 153.356 351.037 157.832 350.753 161.544 347.698
C 167.583 342.729 168.127 330.574 161.064 326.165
C 154.822 322.27 146.747 323.384 139.694 323.402
C 136.812 323.409 133.13 322.864 130.375 323.786 Z"
opacity="1" fill="rgb(15,19,49)" fill-rule="evenodd" />
<path d="
M 129.792 419.856
C 133.695 419.837 137.602 419.875 141.508 419.867
C 142.34 419.866 144.873 419.454 145.308 420.078
C 145.421 420.796 145.389 421.542 145.391 422.269
C 144.871 422.99 142.831 422.683 142.007 422.692
C 138.968 422.723 135.823 422.474 132.803 422.806
C 132.712 425.413 132.795 428.018 132.754 430.624
C 136.36 431.015 140.086 430.133 143.696 430.67
C 144.133 431.249 143.863 432.44 143.668 433.129
C 140.378 433.723 136.26 433.42 132.914 433.308
C 132.9 436.634 132.449 440.078 132.829 443.4
C 131.928 443.592 130.822 443.421 129.899 443.4
C 129.284 440.197 129.682 436.546 129.741 433.295
C 129.823 428.818 129.625 424.331 129.792 419.856 Z"
opacity="1" fill="rgb(12,133,211)" fill-rule="evenodd" />
<path d="
M 144.845 442.004
C 147.966 434.558 150.916 427.056 154.233 419.694
C 155.369 419.695 156.493 419.737 157.629 419.759
C 160.4 425.411 162.779 431.527 165.099 437.383
C 165.638 438.743 166.108 440.163 166.753 441.478
C 167.017 442.018 167.595 442.681 167.475 443.287
C 166.347 443.309 165.296 443.385 164.169 443.264
C 163.115 442.328 162.653 439.872 162.112 438.551
C 161.06 438.011 159.376 438.311 158.208 438.332
C 155.305 438.383 152.4 438.431 149.497 438.417
C 148.789 439.451 148.386 440.88 147.969 442.064
C 147.824 442.475 147.872 443.16 147.52 443.425
C 146.575 443.459 145.62 443.312 144.688 443.164
C 144.704 442.315 144.635 442.699 144.845 442.004 Z
M 150.899 435.048
C 150.82 435.28 150.741 435.513 150.662 435.746
C 154.083 435.686 157.569 435.732 160.992 435.855
C 160.489 432.801 158.492 429.175 157.264 426.32
C 156.901 425.477 156.261 422.774 155.517 423.778
C 154.416 427.509 152.678 431.585 150.899 435.048 Z"
opacity="1" fill="rgb(12,132,208)" fill-rule="evenodd" />
<path d="
M 168.994 438.594
C 169.015 438.081 168.963 438.362 169.222 437.768
C 169.909 437.201 170.483 436.81 171.384 437.006
C 173.113 440.112 176.182 441.711 179.764 441.039
C 181.717 440.673 184.13 439.305 184.044 437.036
C 183.96 434.821 181.395 433.741 179.57 433.279
C 175.719 432.305 169.584 431.312 169.578 426.163
C 169.569 417.499 182.284 418.169 186.13 423.575
C 186.19 424.431 185.466 425.86 184.527 426.011
C 183.304 424.95 182.492 423.521 180.977 422.79
C 178.482 421.586 172.705 422.347 172.807 425.953
C 172.881 428.555 175.146 429.238 177.267 429.79
C 181.716 430.949 189.362 433.133 186.55 439.415
C 184.387 444.245 177.574 444.774 173.292 442.809
C 171.469 441.972 169.008 440.871 168.994 438.594 Z"
opacity="1" fill="rgb(13,130,209)" fill-rule="evenodd" />
<path d="
M 202.867 204.756
C 202.817 204.829 202.294 205.364 202.314 205.389
C 202.727 205.896 203.553 205.866 204.087 206.158
C 206.151 207.284 207.932 209.276 209.849 210.653
C 215.845 214.959 221.754 219.401 227.683 223.795
C 229.207 224.924 230.65 226.176 232.219 227.241
C 232.816 227.646 233.85 228.128 233.951 228.873
C 232.52 230.241 230.619 231.293 229.029 232.495
C 225.026 235.523 220.918 238.412 216.943 241.479
C 215.422 242.653 213.881 243.813 212.332 244.949
C 211.882 245.278 211.281 245.906 210.695 245.829
C 202.757 240.122 194.958 234.01 187.395 227.813
C 185.557 226.307 183.638 224.893 181.796 223.392
C 181.226 222.927 179.829 222.261 179.704 221.563
C 181.934 220.331 183.984 218.515 185.997 216.953
C 189.772 214.023 193.67 211.228 197.607 208.519
C 199.35 207.319 201.035 205.788 202.867 204.756 Z"
opacity="1" fill="rgb(252,140,8)" fill-rule="evenodd" />
<path d="
M 189.027 421.107
C 189.041 420.489 189.03 420.844 189.064 420.044
C 190.494 419.387 192.923 419.912 194.503 419.905
C 198.669 419.885 202.839 419.862 207.003 419.88
C 206.922 420.629 207.167 422.017 206.818 422.659
C 204.525 422.804 202.186 422.806 199.891 422.766
C 199.486 427.69 199.559 432.671 199.438 437.607
C 199.405 438.951 200.028 442.039 199.269 443.181
C 198.928 443.692 197.225 443.397 196.735 443.266
C 196.001 438.234 196.558 432.817 196.588 427.742
C 196.595 426.44 196.666 425.138 196.674 423.837
C 196.675 423.569 196.856 422.667 196.666 422.496
C 194.15 422.74 191.672 422.678 189.152 422.718
C 188.996 422.187 189.026 421.657 189.027 421.107 Z"
opacity="1" fill="rgb(16,127,196)" fill-rule="evenodd" />
<path d="
M 197.948 313.61
C 198.017 312.966 198 313.357 197.921 312.436
C 199.617 312.079 201.472 312.317 203.201 312.303
C 206.636 312.273 210.072 312.295 213.507 312.297
C 225.454 312.303 240.056 309.97 249.963 318.219
C 264.766 330.545 259.022 355.632 240.381 360.376
C 246.302 367.238 250.96 375.447 256.122 382.89
C 257.347 384.657 258.59 386.415 259.815 388.18
C 259.942 388.361 260.849 389.505 260.835 389.519
C 257.323 388.981 253.552 389.388 250.002 389.333
C 248.849 389.315 247.512 389.549 246.398 389.259
C 241.626 382.569 237.17 375.653 232.402 368.963
C 230.827 366.752 229.348 363.496 227.36 361.692
C 221.732 361.73 216.035 361.503 210.419 361.846
C 209.443 363.627 209.951 366.506 209.949 368.507
C 209.944 373.34 209.995 378.174 209.969 383.006
C 209.962 384.441 209.969 385.877 209.953 387.31
C 209.948 387.724 210.096 388.906 209.88 389.232
C 206.028 389.237 201.826 389.636 198.013 389.166
C 198.26 387.218 197.911 385.153 197.976 383.183
C 198.191 376.665 198.063 370.119 197.944 363.602
C 197.643 347.011 197.355 330.193 197.948 313.61 Z
M 209.967 323.948
C 209.975 332.919 209.606 341.966 210.054 350.922
C 217.335 350.404 224.688 351.458 231.982 351.043
C 235.772 350.828 239.535 349.746 242.316 347.043
C 247.236 342.26 247.939 332.569 242.982 327.534
C 237.616 322.082 228.928 323.429 222.01 323.437
C 219.023 323.44 216.033 323.491 213.047 323.445
C 212.125 323.43 210.571 323.194 209.967 323.948 Z"
opacity="1" fill="rgb(15,20,50)" fill-rule="evenodd" />
<path d="
M 202.867 204.756
C 204.861 204.026 206.817 201.777 208.495 200.466
C 212.652 197.218 216.825 193.992 221.006 190.776
C 222.74 189.443 224.541 187.484 226.565 186.638
C 229.621 188.175 232.429 190.689 235.177 192.722
C 240.381 196.571 245.55 200.476 250.614 204.509
C 252.471 205.988 254.316 207.502 256.137 209.026
C 256.658 209.462 258.137 210.304 258.304 210.954
C 256.389 213.27 252.774 215.13 250.355 216.949
C 246.695 219.701 242.941 222.316 239.24 225.01
C 237.533 226.252 235.813 227.894 233.951 228.873
C 233.85 228.128 232.816 227.646 232.219 227.241
C 230.65 226.176 229.207 224.924 227.683 223.795
C 221.754 219.401 215.845 214.959 209.849 210.653
C 207.932 209.276 206.151 207.284 204.087 206.158
C 203.553 205.866 202.727 205.896 202.314 205.389
C 202.294 205.364 202.817 204.829 202.867 204.756 Z"
opacity="1" fill="rgb(251,68,14)" fill-rule="evenodd" />
<path d="
M 223.44 254.262
C 224.555 255.998 223.854 259.953 223.846 261.994
C 223.829 266.495 223.863 270.995 223.867 275.496
C 223.869 277.685 223.421 280.317 223.997 282.44
C 221.327 279.615 217.427 277.573 214.292 275.296
C 211.064 272.953 207.86 269.744 204.244 268.059
C 205.145 266.466 208.105 265.12 209.618 264.026
C 214.071 260.809 218.564 256.802 223.44 254.262 Z"
opacity="1" fill="rgb(253,156,14)" fill-rule="evenodd" />
<path d="
M 239.526 145.474
C 239.751 146.067 239.771 145.773 239.395 146.347
C 237.151 148.581 234.137 150.206 231.526 151.973
C 227.162 154.926 222.777 157.876 218.463 160.903
C 215.026 163.316 211.095 167.206 207.167 168.615
C 206.271 152.9 208.002 137.027 206.933 121.337
C 208.169 122.708 209.994 123.804 211.486 124.911
C 214.584 127.209 217.686 129.505 220.78 131.809
C 225.117 135.038 229.53 138.148 233.919 141.306
C 235.796 142.657 237.549 144.275 239.526 145.474 Z"
opacity="1" fill="rgb(29,175,247)" fill-rule="evenodd" />
<path d="
M 207.167 168.615
C 211.095 167.206 215.026 163.316 218.463 160.903
C 222.777 157.876 227.162 154.926 231.526 151.973
C 234.137 150.206 237.151 148.581 239.395 146.347
C 240 146.098 240.423 146.222 241.002 146.5
C 247.604 151.753 254.374 156.813 261.206 161.774
C 262.913 163.014 264.642 164.229 266.314 165.517
C 267.107 166.128 267.784 166.458 267.852 167.515
C 268.035 182.96 267.402 198.412 267.943 213.843
C 266.759 213.813 265.17 212.174 264.266 211.464
C 261.335 209.159 258.284 207.011 255.361 204.698
C 244.253 195.912 232.773 187.408 221.259 179.163
C 217.724 176.632 214.278 173.982 210.751 171.439
C 209.885 170.815 207.401 169.551 207.167 168.615 Z"
opacity="1" fill="rgb(6,97,231)" fill-rule="evenodd" />
<path d="
M 210.432 421.098
C 210.528 420.453 210.496 420.835 210.466 419.948
C 213.784 419.66 217.172 420.067 220.506 420.011
C 222.249 419.981 224.244 419.55 225.952 419.897
C 225.91 420.778 226.099 421.735 225.954 422.6
C 224.889 422.981 223.154 422.702 222.012 422.697
C 219.131 422.683 216.244 422.677 213.366 422.794
C 213.315 425.265 213.468 427.77 213.321 430.236
C 215.722 430.78 219.018 430.219 221.505 430.193
C 222.529 430.183 224.018 429.932 224.944 430.374
C 224.92 431.005 225.336 432.406 224.788 432.834
C 221.018 432.788 217.236 432.869 213.468 433.008
C 213.351 435.545 213.401 438.087 213.3 440.627
C 213.986 441.099 215.807 440.735 216.647 440.737
C 219.84 440.748 223.038 440.743 226.228 440.653
C 226.289 441.538 226.291 442.413 226.264 443.299
C 224.923 443.726 222.933 443.347 221.51 443.34
C 217.839 443.321 214.053 443.098 210.397 443.453
C 209.735 441.105 210.242 437.942 210.266 435.501
C 210.313 430.743 209.984 425.836 210.432 421.098 Z"
opacity="1" fill="rgb(14,128,205)" fill-rule="evenodd" />
<path d="
M 223.997 282.44
C 223.421 280.317 223.869 277.685 223.867 275.496
C 223.863 270.995 223.829 266.495 223.846 261.994
C 223.854 259.953 224.555 255.998 223.44 254.262
C 224.359 252.864 227.033 255.692 228.068 256.486
C 232.052 259.542 236.284 262.285 240.21 265.42
C 240.947 266.009 243.835 267.548 243.885 268.422
C 239.95 272.076 234.801 274.85 230.424 277.958
C 228.551 279.288 226.195 281.824 223.997 282.44 Z"
opacity="1" fill="rgb(251,69,19)" fill-rule="evenodd" />
<path d="
M 248.742 228.753
C 248.745 236.317 248.959 243.928 249.135 251.508
C 249.177 253.333 249.237 255.157 249.295 256.981
C 249.304 257.289 249.493 258.389 249.083 258.455
C 247.78 256.322 244.192 254.77 242.136 253.395
C 237.515 250.301 232.944 246.871 228.622 243.374
C 229.717 241.713 232.557 240.499 234.138 239.249
C 238.83 235.539 243.701 231.948 248.742 228.753 Z"
opacity="1" fill="rgb(253,160,14)" fill-rule="evenodd" />
<path d="
M 230.224 420.207
C 231.983 419.89 233.791 420.068 235.572 420.045
C 238.601 420.006 242.084 419.547 244.76 421.26
C 250.329 424.826 248.187 432.565 242.775 434.721
C 242.762 435.228 243.778 436.096 244.076 436.572
C 245.028 438.094 245.745 439.717 246.914 441.099
C 247.393 441.665 248.367 442.477 248.365 443.269
C 247.282 443.339 246.253 443.456 245.168 443.325
C 244.242 442.792 243.638 441.443 243.09 440.547
C 241.933 438.659 240.57 436.859 239.445 434.974
C 237.679 434.406 235.21 434.874 233.362 434.949
C 233.379 437.705 233.407 440.516 233.218 443.268
C 232.511 443.649 230.933 443.474 230.218 443.105
C 229.806 435.558 230.112 427.772 230.224 420.207 Z
M 233.361 422.855
C 233.37 425.927 233.336 429.046 233.25 432.123
C 235.422 432.148 237.607 432.115 239.781 432.096
C 240.893 432.086 242.253 432.164 243.215 431.489
C 245.666 429.768 245.492 424.639 242.747 423.301
C 240.124 422.023 236.171 422.882 233.361 422.855 Z"
opacity="1" fill="rgb(17,129,205)" fill-rule="evenodd" />
<path d="
M 239.526 145.474
C 240.191 145.661 239.927 145.721 240.336 145.541
C 240.519 145.932 240.733 146.168 241.002 146.5
C 240.423 146.222 240 146.098 239.395 146.347
C 239.771 145.773 239.751 146.067 239.526 145.474 Z"
opacity="0.996" fill="rgb(103,151,184)" fill-rule="evenodd" />
<path d="
M 241.326 108.258
C 241.042 108.516 240.619 108.848 240.89 109.305
C 241.817 110.873 244.817 112.36 246.251 113.523
C 251.551 117.818 257.345 121.621 262.867 125.631
C 263.911 126.39 267.028 129.644 268.306 128.856
C 267.696 129.845 267.878 131.043 267.868 132.17
C 267.847 134.475 267.872 136.781 267.886 139.087
C 267.931 147.108 267.955 155.127 268.022 163.147
C 268.031 164.219 268.416 165.359 268.378 166.388
C 267.949 166.819 268.017 166.977 267.852 167.515
C 267.784 166.458 267.107 166.128 266.314 165.517
C 264.642 164.229 262.913 163.014 261.206 161.774
C 254.374 156.813 247.604 151.753 241.002 146.5
C 240.733 146.168 240.519 145.932 240.336 145.541
C 239.578 142.637 240.138 138.993 240.159 136.002
C 240.202 129.67 240.302 123.337 240.309 117.005
C 240.311 115.171 240.309 113.338 240.29 111.504
C 240.283 110.806 240.006 109.662 240.209 109.007
C 240.295 108.73 241.104 108.396 241.326 108.258 Z"
opacity="1" fill="rgb(252,127,7)" fill-rule="evenodd" />
<path d="
M 241.326 108.258
C 247.679 103.777 254.355 99.592 260.459 94.764
C 262.093 93.472 263.8 92.282 265.426 90.977
C 266.053 90.475 266.704 89.718 267.533 89.755
C 274.448 94.167 280.838 99.466 287.485 104.266
C 290.009 106.088 292.412 108.349 295.147 109.823
C 292.597 110.149 289.822 113.348 287.705 114.776
C 283.949 117.31 280.349 120.077 276.666 122.715
C 273.9 124.697 270.79 126.522 268.306 128.856
C 267.028 129.644 263.911 126.39 262.867 125.631
C 257.345 121.621 251.551 117.818 246.251 113.523
C 244.817 112.36 241.817 110.873 240.89 109.305
C 240.619 108.848 241.042 108.516 241.326 108.258 Z"
opacity="1" fill="rgb(255,164,20)" fill-rule="evenodd" />
<path d="
M 249.083 258.455
C 249.493 258.389 249.304 257.289 249.295 256.981
C 249.237 255.157 249.177 253.333 249.135 251.508
C 248.959 243.928 248.745 236.317 248.742 228.753
C 249.885 227.401 251.698 226.546 253.153 225.566
C 256.214 223.505 259.149 221.221 262.125 219.04
C 263.894 217.744 265.874 215.486 268.125 215.212
C 268.803 218.584 268.23 222.536 268.22 226.001
C 268.204 232.11 268.624 238.347 268.366 244.434
C 267.357 245.66 265.57 246.502 264.307 247.481
C 260.823 250.181 257.148 252.63 253.654 255.314
C 252.546 256.165 251.419 256.967 250.379 257.905
C 249.997 258.25 249.518 258.973 249.083 258.455 Z"
opacity="1" fill="rgb(253,74,19)" fill-rule="evenodd" />
<path d="
M 254.892 431.043
C 256.79 426.791 263.599 430.21 260.663 433.871
C 260.262 434.372 259.759 434.773 259.205 435.09
C 256.375 436.005 254.435 433.717 254.892 431.043 Z"
opacity="1" fill="rgb(235,83,11)" fill-rule="evenodd" />
<path d="
M 267.374 437.991
C 268.149 437.511 268.763 437.106 269.702 437.096
C 271.592 440.328 275.183 441.835 278.813 440.612
C 280.296 440.113 282.311 438.898 282.295 437.094
C 282.278 435.105 279.655 433.767 278.019 433.324
C 274.028 432.245 267.556 431.61 267.822 426.001
C 268.139 419.332 276.784 418.401 281.231 421.239
C 282.188 421.85 283.86 422.991 284.178 424.121
C 284.072 424.937 283.409 425.619 282.604 425.789
C 280.99 424.861 280.393 423.107 278.412 422.593
C 275.981 421.961 268.547 423.171 271.208 427.322
C 274.146 431.907 283.389 428.977 284.777 435.45
C 284.919 436.112 284.916 436.809 284.856 437.48
C 284.1 445.947 269.489 445.5 267.106 438.402
C 267.195 438.265 267.284 438.128 267.374 437.991 Z"
opacity="1" fill="rgb(225,113,17)" fill-rule="evenodd" />
<path d="
M 268.306 128.856
C 270.79 126.522 273.9 124.697 276.666 122.715
C 280.349 120.077 283.949 117.31 287.705 114.776
C 289.822 113.348 292.597 110.149 295.147 109.823
C 295.547 110.58 295.284 111.752 295.285 112.587
C 295.288 115.057 295.317 117.529 295.336 119.999
C 295.406 128.912 295.67 137.897 295.243 146.799
C 286.576 153.679 277.042 159.527 268.378 166.388
C 268.416 165.359 268.031 164.219 268.022 163.147
C 267.955 155.127 267.931 147.108 267.886 139.087
C 267.872 136.781 267.847 134.475 267.868 132.17
C 267.878 131.043 267.696 129.845 268.306 128.856 Z"
opacity="1" fill="rgb(251,70,15)" fill-rule="evenodd" />
<path d="
M 320.495 158.707
C 328.711 164.75 336.953 170.846 345.318 176.689
C 347.456 178.182 349.568 179.714 351.696 181.222
C 352.437 181.747 353.421 182.843 354.361 182.883
C 346.052 189.272 337.201 195.008 328.966 201.519
C 328.113 201.476 327.492 200.685 326.834 200.186
C 325.382 199.084 323.93 197.975 322.46 196.896
C 317.096 192.957 311.754 188.935 306.241 185.207
C 304.409 183.969 302.71 182.501 300.871 181.291
C 300.297 180.913 299.734 179.678 299.188 180.097
C 299.188 180.097 299.196 182.23 299.192 182.616
C 299.165 185.36 298.71 188.813 299.384 191.467
C 297.757 194.076 294.395 195.652 291.989 197.43
C 285.395 202.303 278.453 206.842 272.187 212.136
C 271.099 213.026 269.678 214.21 270.288 215.738
C 269.18 214.904 269.398 214.117 269.386 212.84
C 269.362 210.398 269.359 207.952 269.367 205.51
C 269.392 198.175 269.473 190.84 269.446 183.504
C 269.433 180.124 268.672 175.789 269.714 172.564
C 272.866 169.741 276.671 167.474 280.111 165.011
C 286.472 160.456 292.67 155.663 299.076 151.172
C 299.166 151.216 299.13 152.435 299.136 152.655
C 299.173 153.938 299.186 155.221 299.192 156.505
C 299.219 162.269 299.113 168.037 299.197 173.799
C 299.562 174.242 300.299 173.359 300.667 173.094
C 301.894 172.211 303.104 171.299 304.329 170.41
C 308.306 167.525 312.15 164.442 316.13 161.557
C 317.33 160.687 318.981 158.678 320.495 158.707 Z"
opacity="1" fill="rgb(9,73,220)" fill-rule="evenodd" />
<path d="
M 299.384 191.467
C 300.8 191.681 301.979 192.838 303.092 193.676
C 305.105 195.192 307.112 196.717 309.126 198.232
C 316.562 203.821 324.418 209.062 331.677 214.849
C 330.651 216.176 328.936 217.122 327.58 218.106
C 325.079 219.922 322.495 221.621 319.988 223.423
C 313.287 228.238 306.705 233.489 299.854 238.044
C 298.995 237.902 298.169 236.924 297.469 236.411
C 295.726 235.134 293.981 233.844 292.267 232.53
C 287.12 228.584 282.02 224.577 276.83 220.69
C 274.876 219.226 271.653 217.757 270.288 215.738
C 269.678 214.21 271.099 213.026 272.187 212.136
C 278.453 206.842 285.395 202.303 291.989 197.43
C 294.395 195.652 297.757 194.076 299.384 191.467 Z"
opacity="1" fill="rgb(8,139,228)" fill-rule="evenodd" />
<path d="
M 278.343 312.276
C 282.303 312.385 286.266 312.179 290.224 312.258
C 290.305 329.335 290.304 346.419 290.29 363.5
C 290.285 369.167 290.294 374.834 290.292 380.5
C 290.29 383.368 289.972 386.449 290.324 389.29
C 286.476 389.118 282.48 389.033 278.638 389.325
C 277.851 387.342 278.379 384.335 278.381 382.222
C 278.385 377.314 278.393 372.407 278.38 367.499
C 278.348 355.332 278.351 343.165 278.36 330.999
C 278.365 324.811 278.843 318.442 278.343 312.276 Z"
opacity="1" fill="rgb(15,19,49)" fill-rule="evenodd" />
<path d="
M 288.804 419.875
C 294.023 420.102 299.202 419.917 304.417 419.911
C 304.446 420.892 304.358 421.811 304.265 422.779
C 300.33 423.406 296.187 422.571 292.219 423.037
C 291.224 424.306 291.785 427.132 291.826 428.73
C 291.84 429.233 291.68 429.91 292.001 430.313
C 295.704 430.228 299.42 430.097 303.118 430.29
C 303.607 430.967 303.991 432.278 303.191 432.836
C 299.69 433.608 295.529 431.92 292.175 433.05
C 291.951 435.415 291.738 438.481 292.14 440.829
C 296.19 440.531 300.622 440.431 304.667 440.804
C 304.853 441.628 304.696 442.474 304.729 443.305
C 299.491 443.385 294.176 443.08 288.95 443.402
C 288.289 441.019 288.765 437.968 288.757 435.503
C 288.741 430.296 288.674 425.079 288.804 419.875 Z"
opacity="1" fill="rgb(230,119,18)" fill-rule="evenodd" />
<path d="
M 296.933 132.533
C 304.016 128.472 310.385 123.166 317.437 119.103
C 319.232 119.381 321.669 122.112 323.164 123.233
C 328.009 126.866 333.729 130.211 338.038 134.463
C 334.538 137.969 329.814 140.642 325.782 143.513
C 323.366 145.234 320.869 147.661 318.208 148.939
C 316.486 148.558 314.806 146.422 313.403 145.359
C 309.454 142.364 305.406 139.494 301.459 136.5
C 300.364 135.668 296.879 133.838 296.933 132.533 Z"
opacity="1" fill="rgb(250,74,18)" fill-rule="evenodd" />
<path d="
M 299.854 238.044
C 306.705 233.489 313.287 228.238 319.988 223.423
C 322.495 221.621 325.079 219.922 327.58 218.106
C 328.936 217.122 330.651 216.176 331.677 214.849
C 332.755 215.166 332.341 216.591 332.357 217.572
C 332.404 220.383 332.428 223.194 332.444 226.006
C 332.493 234.503 332.355 242.996 332.34 251.505
C 332.334 255.291 331.95 259.208 332.359 262.971
C 329.437 260.236 325.954 257.998 322.751 255.601
C 318.114 252.132 313.527 248.6 308.925 245.085
C 306.784 243.449 304.639 241.819 302.435 240.267
C 301.585 239.668 300.281 239.028 299.854 238.044 Z"
opacity="1" fill="rgb(27,176,249)" fill-rule="evenodd" />
<path d="
M 306.729 312.147
C 309.912 312.51 313.298 312.212 316.51 312.23
C 317.491 312.236 319.167 311.873 319.979 312.37
C 320.595 315.092 322.065 317.939 323.156 320.525
C 324.806 324.439 326.335 328.409 327.928 332.346
C 333.588 346.333 339.677 360.441 344.514 374.72
C 345.406 374.146 345.878 371.487 346.278 370.453
C 347.898 366.274 349.639 362.139 351.279 357.966
C 355.449 347.354 359.779 336.801 364.149 326.269
C 365.469 323.086 366.716 319.873 368.04 316.693
C 368.675 315.165 369.073 313.505 369.995 312.129
C 374.044 312.283 378.609 311.573 382.578 312.289
C 375.828 329.833 368.155 347.058 360.981 364.438
C 358.49 370.474 356.044 376.536 353.46 382.533
C 352.576 384.585 351.901 387.684 350.561 389.438
C 346.625 389.85 342.543 389.119 338.576 389.436
C 333.748 377.187 328.467 365.106 323.42 352.942
C 317.797 339.39 312.806 325.497 306.729 312.147 Z"
opacity="1" fill="rgb(15,18,47)" fill-rule="evenodd" />
<path d="
M 306.945 420.426
C 307.05 420.319 307.155 420.212 307.26 420.105
C 312.596 419.553 318.07 419.992 323.427 419.929
C 324.011 420.744 324.306 422.006 323.588 422.783
C 321.397 422.96 319.092 422.907 316.895 422.828
C 316.55 427.22 316.848 431.734 316.872 436.142
C 316.885 438.473 316.479 441.286 317.022 443.559
C 316.082 443.698 315.156 443.522 314.227 443.386
C 313.19 436.612 314.37 429.626 314.051 422.826
C 311.742 422.868 309.425 422.728 307.123 422.782
C 306.579 422.174 306.851 421.199 306.945 420.426 Z"
opacity="1" fill="rgb(228,111,17)" fill-rule="evenodd" />
<path d="
M 354.361 182.883
C 353.421 182.843 352.437 181.747 351.696 181.222
C 349.568 179.714 347.456 178.182 345.318 176.689
C 336.953 170.846 328.711 164.75 320.495 158.707
C 320.452 157.996 321.384 157.449 321.87 157.066
C 323.131 156.073 324.476 155.179 325.753 154.203
C 329.956 150.987 334.187 147.795 338.514 144.745
C 339.962 143.725 342.3 141.37 344.049 141.173
C 351.785 146.767 359.466 152.445 367.104 158.181
C 369.451 159.943 371.758 161.748 374.078 163.544
C 374.827 164.123 376.498 165.039 376.932 165.84
C 375.268 167.622 372.933 168.968 370.983 170.422
C 365.439 174.556 359.731 178.534 354.361 182.883 Z"
opacity="1" fill="rgb(6,142,230)" fill-rule="evenodd" />
<path d="
M 324.853 420.375
C 326.387 419.821 328.022 420.078 329.622 420.059
C 332.251 420.027 334.872 420.041 337.497 420.034
C 338.843 420.03 340.586 419.541 341.862 420.038
C 341.804 420.95 341.697 421.992 341.838 422.889
C 339.54 422.798 337.225 422.978 334.93 422.825
C 333.83 429.526 334.976 436.773 334.688 443.555
C 333.769 443.706 332.657 443.752 331.733 443.62
C 331.803 436.77 331.381 429.802 331.786 422.969
C 331.371 422.648 330.548 422.824 330.015 422.831
C 328.399 422.852 326.785 422.76 325.17 422.789
C 324.483 422.206 324.762 421.194 324.853 420.375 Z"
opacity="1" fill="rgb(226,103,16)" fill-rule="evenodd" />
<path d="
M 346.757 95.578
C 346.032 98.298 346.338 101.206 346.352 103.996
C 346.374 108.329 346.336 112.669 346.43 117
C 346.467 118.672 346.67 120.334 346.725 122.002
C 346.748 122.712 346.555 123.264 347.401 123.376
C 345.98 124.601 343.293 121.515 341.97 120.559
C 336.921 116.911 331.076 113.333 326.678 108.911
C 331.364 105.182 336.342 101.653 341.285 98.267
C 342.737 97.272 345.355 94.494 346.757 95.578 Z"
opacity="1" fill="rgb(250,74,18)" fill-rule="evenodd" />
<path d="
M 345.37 420.523
C 345.4 420.338 345.429 420.154 345.459 419.969
C 346.397 419.88 347.463 419.697 348.389 419.937
C 348.155 426.87 348.474 433.841 348.306 440.78
C 348.739 441.107 350.048 440.809 350.597 440.807
C 352.796 440.8 354.993 440.809 357.193 440.765
C 357.877 440.751 359.337 440.524 359.869 440.92
C 359.873 441.733 360.049 442.595 359.903 443.397
C 355.358 442.834 349.944 443.097 345.375 443.459
C 344.99 441.089 345.393 438.408 345.394 436.001
C 345.398 430.844 345.451 425.678 345.37 420.523 Z"
opacity="1" fill="rgb(234,112,7)" fill-rule="evenodd" />
<path d="
M 346.757 95.578
C 349.146 96.534 351.046 98.538 353.137 100.009
C 357.586 103.141 362.058 106.504 366.221 110.003
C 362.901 112.648 359.25 114.988 355.798 117.471
C 353.068 119.434 350.415 121.858 347.401 123.376
C 346.555 123.264 346.748 122.712 346.725 122.002
C 346.67 120.334 346.467 118.672 346.43 117
C 346.336 112.669 346.374 108.329 346.352 103.996
C 346.338 101.206 346.032 98.298 346.757 95.578 Z"
opacity="1" fill="rgb(253,159,19)" fill-rule="evenodd" />
<path d="
M 362.984 421.114
C 363.091 420.515 363.059 420.864 363.012 420.063
C 364.48 419.464 366.445 419.832 368.009 419.845
C 371.576 419.877 375.142 419.806 378.707 419.82
C 378.789 420.649 379.019 421.768 378.8 422.571
C 374.786 422.98 370.311 422.999 366.286 422.803
C 365.898 424.53 365.659 428.488 366.237 430.177
C 369.848 429.861 374.009 429.942 377.624 430.3
C 377.822 431.1 377.727 431.896 377.739 432.707
C 374.995 432.818 372.262 432.941 369.51 432.919
C 368.688 432.913 366.868 432.605 366.225 433.079
C 366.027 435.365 365.694 438.562 366.168 440.809
C 369.267 440.631 372.397 440.801 375.504 440.769
C 376.298 440.761 378.298 440.432 378.851 440.96
C 378.85 441.751 378.87 442.526 378.812 443.316
C 373.786 442.91 368.544 443.366 363.495 443.358
C 362.608 442.535 363.119 439.171 363.074 437.943
C 362.873 432.432 362.42 426.614 362.984 421.114 Z"
opacity="1" fill="rgb(228,116,15)" fill-rule="evenodd" />
<path d="
M 391.304 419.925
C 396.257 419.85 401.219 419.917 406.177 419.839
C 406.575 420.613 406.212 421.866 406.257 422.716
C 402.303 422.369 398.24 422.936 394.28 422.83
C 394.247 425.441 394.263 428.063 394.157 430.672
C 396.703 430.951 399.429 430.715 401.993 430.661
C 403.037 430.639 404.505 430.424 405.45 430.897
C 405.366 431.655 405.398 432.407 405.209 433.148
C 401.748 433.54 397.725 433.577 394.259 433.271
C 394.429 436.644 394.268 440.08 394.045 443.439
C 393.203 443.661 392.205 443.568 391.434 443.181
C 391.005 439.539 391.357 435.676 391.32 432.005
C 391.28 428.05 390.866 423.854 391.304 419.925 Z"
opacity="1" fill="rgb(228,108,15)" fill-rule="evenodd" />
<path d="
M 398.229 312.249
C 400.988 312.42 403.797 312.34 406.562 312.313
C 407.589 312.303 409 311.992 409.951 312.359
C 409.585 318.185 409.986 324.17 409.979 330.014
C 409.965 342.513 409.938 355.012 409.922 367.512
C 409.915 372.512 409.936 377.512 409.921 382.511
C 409.914 384.607 410.298 387.146 409.888 389.19
C 406.006 389.282 402.094 389.177 398.208 389.196
C 398.501 371.48 398.093 353.725 398.097 336.003
C 398.099 330.669 398.119 325.337 398.142 320.003
C 398.153 317.473 397.821 314.744 398.229 312.249 Z"
opacity="1" fill="rgb(16,20,51)" fill-rule="evenodd" />
<path d="
M 405.978 442.59
C 407.621 436.979 410.253 431.476 412.569 426.109
C 413.37 424.253 413.96 421.164 415.476 419.819
C 416.393 419.766 417.199 419.846 418.102 419.934
C 419.304 421.333 419.805 423.567 420.506 425.249
C 422.108 429.092 423.48 433.058 425.118 436.875
C 425.928 438.762 427.88 441.274 427.964 443.334
C 426.839 443.339 425.69 443.536 424.571 443.405
C 423.946 441.668 423.693 439.76 422.67 438.177
C 419.914 438.674 416.832 438.3 414.025 438.31
C 412.958 438.314 411.638 438.158 410.652 438.613
C 410.279 439.29 410.001 439.993 409.736 440.719
C 409.276 441.744 408.89 442.76 408.235 443.681
C 407.592 443.875 406.641 443.611 405.965 443.556
C 405.799 442.972 405.822 443.293 405.978 442.59 Z
M 411.946 434.566
C 411.701 435.181 411.831 434.828 411.573 435.631
C 414.918 436.155 418.393 435.46 421.754 435.731
C 421.765 434.832 420.956 433.584 420.605 432.738
C 419.689 430.53 418.852 428.265 417.993 426.033
C 417.675 425.206 417.156 422.862 416.398 423.99
C 415.162 427.601 413.444 431.059 411.946 434.566 Z"
opacity="1" fill="rgb(228,109,14)" fill-rule="evenodd" />
<path d="
M 429.395 437.469
C 430.222 437.268 431.074 436.922 431.941 437.016
C 433.698 440.087 436.308 441.438 439.85 441.175
C 442.133 441.006 444.687 439.422 444.534 436.857
C 444.418 434.92 442.229 433.929 440.591 433.45
C 436.504 432.253 429.787 431.207 430.428 425.47
C 430.514 424.7 430.841 423.906 431.231 423.24
C 433.442 419.463 439.192 418.777 442.922 420.503
C 443.989 420.997 447.676 423.195 447.167 424.64
C 446.51 425.093 445.851 425.535 445.095 425.805
C 443.6 424.953 443.251 423.229 441.287 422.647
C 439.465 422.106 437.225 422.085 435.508 422.981
C 433.823 423.861 432.9 425.99 434.148 427.665
C 437.09 431.612 446.892 429.35 447.676 435.587
C 447.788 436.477 447.784 437.507 447.635 438.393
C 447.184 441.079 444.71 442.783 442.233 443.466
C 437.459 444.783 430.834 443.005 429.215 437.901
C 429.275 437.757 429.335 437.613 429.395 437.469 Z"
opacity="1" fill="rgb(226,112,18)" fill-rule="evenodd" />
<path d="
M 429.968 345.604
C 430.498 340.846 432.09 335.958 434.354 331.757
C 445.104 311.809 472.004 304.989 491.363 316.663
C 496.085 319.511 499.951 323.324 503.145 327.788
C 505.811 331.513 507.669 335.745 508.794 340.178
C 509.926 344.64 510.765 349.735 510.045 354.334
C 508.677 363.072 506.077 371.324 499.896 377.956
C 484.101 394.9 454.558 394.823 439.147 377.324
C 431.505 368.647 428.705 356.931 429.968 345.604 Z
M 441.929 347.611
C 441.475 351.729 441.902 355.968 443.101 359.939
C 444.113 363.292 445.746 366.286 447.868 369.059
C 457.811 382.056 477.983 382.638 489.61 371.705
C 494.298 367.298 497.112 360.81 497.819 354.48
C 498.306 350.122 497.935 345.641 496.587 341.459
C 495.416 337.825 493.588 334.378 491.06 331.503
C 488.868 329.01 486.105 326.896 483.138 325.417
C 468.836 318.287 451.249 323.841 444.427 338.522
C 443.109 341.359 442.271 344.506 441.929 347.611 Z"
opacity="1" fill="rgb(15,19,47)" fill-rule="evenodd" />
<path d="
M 449.991 421.114
C 450.042 420.447 450.02 420.809 450.054 420.029
C 451.553 419.647 453.284 419.959 454.819 419.994
C 457.278 420.051 459.73 420.029 462.189 420.068
C 463.847 420.095 465.777 419.766 467.358 420.286
C 467.461 420.999 467.846 422.187 467.362 422.812
C 465.093 422.775 462.75 423.033 460.493 422.793
C 460.215 427.862 460.26 432.946 460.233 438.024
C 460.227 439.214 460.893 442.664 459.976 443.48
C 459.128 443.425 458.217 443.472 457.406 443.231
C 456.742 436.68 457.172 429.568 457.323 422.98
C 455.748 422.155 451.788 422.638 450.012 422.792
C 449.947 422.225 449.962 421.683 449.991 421.114 Z"
opacity="1" fill="rgb(227,105,17)" fill-rule="evenodd" />
<path d="
M 470.832 420.471
C 471.968 419.616 473.657 419.98 475.006 420.031
C 477.591 420.127 480.26 420.153 482.843 420.02
C 483.719 419.975 486.078 419.471 486.76 419.985
C 486.78 420.765 486.993 421.858 486.797 422.606
C 483.873 422.711 480.942 422.692 478.015 422.711
C 476.785 422.718 475.141 422.453 474.087 423.086
C 473.921 424.807 473.997 426.545 473.964 428.274
C 473.954 428.814 473.708 429.85 474.044 430.282
C 476.693 430.135 479.355 430.257 482.007 430.224
C 482.979 430.213 484.593 429.961 485.426 430.45
C 485.435 431.232 485.629 432.021 485.579 432.797
C 482.871 432.914 480.162 432.852 477.452 432.945
C 476.595 432.975 474.863 432.781 474.182 433.222
C 473.992 435.385 473.393 438.758 474.016 440.839
C 477.072 440.667 480.154 440.709 483.217 440.7
C 484.2 440.697 486.012 440.41 486.852 440.943
C 486.869 441.709 486.946 442.485 486.843 443.248
C 481.775 442.844 476.042 442.908 470.979 443.362
C 470.468 441.102 470.875 438.315 470.883 435.996
C 470.901 430.827 470.961 425.638 470.832 420.471 Z"
opacity="1" fill="rgb(224,112,17)" fill-rule="evenodd" />
<path d="
M 490.982 421.111
C 490.997 420.859 491.011 420.608 491.026 420.357
C 492.529 419.747 493.964 419.978 495.548 420.021
C 498.957 420.114 502.962 419.344 505.86 421.578
C 510.736 425.336 508.224 432.477 503.333 434.641
C 503.436 435.2 504.255 436.003 504.598 436.501
C 505.685 438.077 506.634 439.74 507.66 441.354
C 508.071 442.002 509.02 443.015 509.002 443.796
C 504.452 444.03 502.184 438.235 499.967 434.934
C 498.642 434.411 495.292 434.362 493.999 434.96
C 493.914 437.732 493.767 440.55 493.838 443.318
C 492.913 443.263 491.981 443.248 491.055 443.277
C 490.373 440.552 490.804 437.302 490.806 434.503
C 490.81 430.133 490.325 425.438 490.982 421.111 Z
M 493.926 422.847
C 493.822 424.906 493.868 426.976 493.84 429.039
C 493.828 429.95 493.609 431.072 493.922 431.928
C 496.572 431.788 501.205 432.897 503.521 431.484
C 506.063 429.933 506.22 424.797 503.57 423.302
C 501.221 421.977 496.502 422.327 493.926 422.847 Z"
opacity="0.996" fill="rgb(223,112,18)" fill-rule="evenodd" />

</svg>